<svg xmlns="http://www.w3.org/2000/svg" width="210" height="120" viewBox="0 0 220 120">
  <!-- Switch body (orange with black outline) -->
  <rect x="20" y="30" width="180" height="60" rx="8" fill="#F97316" stroke="#000000" stroke-width="2"/>
  
  <!-- RJ45 port group template with 8 pins -->
  <defs>
    <g id="rj45">
      <!-- Port outer shape -->
      <rect width="20" height="18" fill="#1E293B" stroke="#000000" stroke-width="1"/>
      <!-- Pin area -->
      <rect x="2" y="3" width="16" height="6" fill="#334155"/>
      <!-- 8 Pin lines -->
      <line x1="3" y1="4" x2="3" y2="8" stroke="#FACC15" stroke-width="1"/>
      <line x1="5" y1="4" x2="5" y2="8" stroke="#FACC15" stroke-width="1"/>
      <line x1="7" y1="4" x2="7" y2="8" stroke="#FACC15" stroke-width="1"/>
      <line x1="9" y1="4" x2="9" y2="8" stroke="#FACC15" stroke-width="1"/>
      <line x1="11" y1="4" x2="11" y2="8" stroke="#FACC15" stroke-width="1"/>
      <line x1="13" y1="4" x2="13" y2="8" stroke="#FACC15" stroke-width="1"/>
      <line x1="15" y1="4" x2="15" y2="8" stroke="#FACC15" stroke-width="1"/>
      <line x1="17" y1="4" x2="17" y2="8" stroke="#FACC15" stroke-width="1"/>
      <!-- LEDs under port -->
      <circle cx="6" cy="16" r="2" fill="#22C55E" stroke="#064E3B" stroke-width="0.5"/>
      <circle cx="14" cy="16" r="2" fill="#FACC15" stroke="#78350F" stroke-width="0.5"/>
    </g>
  </defs>
  
  <!-- Place multiple ports -->
  <use href="#rj45" x="40" y="50"/>
  <use href="#rj45" x="70" y="50"/>
  <use href="#rj45" x="100" y="50"/>
  <use href="#rj45" x="130" y="50"/>
  <use href="#rj45" x="160" y="50"/>
</svg>
